<svg width="502" height="442" viewBox="0 0 502 442" fill="none" xmlns="http://www.w3.org/2000/svg">
<path d="M484.608 232.366C518.905 292.457 416.016 397.984 411.202 401.236L396.606 447.758L-230.689 446.077C-239.657 428.168 -261.914 379.599 -279.204 328.594C-296.494 277.59 -247.771 267.814 -221.248 269.301C-198.816 170.91 -109.071 203.671 -67.0026 232.35C-75.8715 166.053 -23.5837 125.435 13.7953 125.354C43.6985 125.29 57.7109 154.937 60.9793 169.768C59.944 128.815 76.3195 48.5693 150.104 55.2102C223.889 61.851 232.348 142.548 227.355 182.066C232.343 155.675 260.226 102.182 331.852 99.334C403.479 96.4861 386.486 190.867 369.037 238.413C396.128 216.367 457.171 184.293 484.608 232.366Z" fill="#5886FF"/>
<path d="M207.56 4H236.027C237.565 4 239.04 4.6039 240.128 5.67885C241.215 6.7538 241.826 8.21174 241.826 9.73195V107.168C241.826 108.613 242.208 110.033 242.936 111.286C243.663 112.539 244.711 113.582 245.974 114.31L246.267 114.474C253.525 118.749 259.531 124.819 263.693 132.087C267.854 139.355 270.028 147.568 270 155.919V384.12C270 387.271 268.733 390.293 266.479 392.521C264.225 394.748 261.167 396 257.979 396H185.022C181.834 396 178.776 394.748 176.522 392.521C174.268 390.293 173.001 387.271 173.001 384.12V155.919C172.95 148.122 174.649 140.411 177.975 133.34C181.408 126.175 187.08 118.49 196.344 114.615C197.959 113.929 199.335 112.79 200.301 111.338C201.267 109.886 201.78 108.185 201.775 106.447L201.926 9.5983C201.926 8.11867 202.518 6.69921 203.574 5.65017C204.63 4.60114 206.063 4.00785 207.56 4V4Z" fill="white" stroke="white" stroke-width="7" stroke-miterlimit="10"/>
</svg>
