<svg width="336" height="388" viewBox="0 0 336 388" fill="none" xmlns="http://www.w3.org/2000/svg">
<path d="M767.608 178.366C801.905 238.457 699.015 343.984 694.201 347.236L679.606 393.758L52.3104 392.077C43.3428 374.168 21.0851 325.599 3.79519 274.594C-13.4947 223.59 35.2288 213.814 61.7518 215.301C84.1837 116.91 173.929 149.671 215.997 178.35C207.128 112.053 259.416 71.4347 296.795 71.3541C326.698 71.2896 340.71 100.937 343.979 115.768C342.943 74.8152 359.319 -5.43071 433.104 1.21017C506.888 7.85104 515.348 88.5476 510.354 128.066C515.343 101.675 543.225 48.1819 614.852 45.334C686.479 42.4861 669.486 136.867 652.036 184.413C679.128 162.367 740.17 130.293 767.608 178.366Z" fill="#5886FF"/>
</svg>
