<svg width="292" height="493" viewBox="0 0 292 493" fill="none" xmlns="http://www.w3.org/2000/svg">
<path d="M249.472 486.056L52.3581 489.311C40.4682 489.508 36.5974 473.286 47.4396 468.29C68.585 458.502 103.402 455.51 122.756 454.59C126.584 454.417 130.194 452.764 132.822 449.98C135.451 447.197 136.894 443.502 136.844 439.677L135.195 290.577C135.166 285.677 133.628 280.904 130.79 276.906C127.952 272.908 123.951 269.878 119.33 268.228C-28.5816 216.514 1.8125 72.4165 16.9103 23.6767C18.3884 18.9148 21.3367 14.7416 25.3335 11.7539C29.3303 8.76621 34.1709 7.11713 39.1629 7.04248L249.251 3.57258C253.491 3.49811 257.647 4.7542 261.135 7.16384C264.622 9.57347 267.263 13.0152 268.688 17.0038C284.937 62.6147 324.056 209.896 174.966 267.426C170.53 269.102 166.72 272.107 164.059 276.029C161.399 279.951 160.017 284.598 160.104 289.334L163.393 439.239C163.47 443.064 165.033 446.709 167.752 449.404C170.472 452.098 174.134 453.631 177.965 453.679C197.34 453.958 232.236 455.799 253.693 464.884C264.696 469.596 261.42 485.859 249.472 486.056Z" fill="#5886FF" stroke="#5886FF" stroke-width="7" stroke-miterlimit="10"/>
<path d="M269.7 136H147V255C147.577 255 148.572 254.945 149.863 254.849C166.841 253.586 183.888 250.698 199.436 243.763C260.442 216.554 272.158 162.306 269.7 136Z" fill="#FFF6A5" stroke="#FFF6A5"/>
<path d="M24.2999 136H147V255C146.423 255 145.428 254.945 144.137 254.849C127.159 253.586 110.112 250.698 94.564 243.763C33.5578 216.554 21.8417 162.306 24.2999 136Z" fill="#FFF6A5" stroke="#FFF6A5"/>
<path d="M24 134C24 109.147 44.1472 89 69 89H225C249.853 89 270 109.147 270 134V136H24V134Z" fill="white"/>
</svg>
