<svg width="292" height="493" viewBox="0 0 292 493" fill="none" xmlns="http://www.w3.org/2000/svg">
<path d="M249.472 486.056L52.3581 489.311C40.4682 489.508 36.5974 473.286 47.4396 468.29C68.585 458.502 103.402 455.51 122.756 454.59C126.584 454.417 130.194 452.764 132.822 449.98C135.451 447.197 136.894 443.502 136.844 439.677L135.195 290.577C135.166 285.677 133.628 280.904 130.79 276.906C127.952 272.908 123.951 269.878 119.33 268.228C-28.5816 216.514 1.8125 72.4165 16.9103 23.6767C18.3884 18.9148 21.3367 14.7416 25.3335 11.7539C29.3303 8.76621 34.1709 7.11713 39.1629 7.04248L249.251 3.57258C253.491 3.49811 257.647 4.7542 261.135 7.16384C264.622 9.57347 267.263 13.0152 268.688 17.0038C284.937 62.6147 324.056 209.896 174.966 267.426C170.53 269.102 166.72 272.107 164.059 276.029C161.399 279.951 160.017 284.598 160.104 289.334L163.393 439.239C163.47 443.064 165.033 446.709 167.752 449.404C170.472 452.098 174.134 453.631 177.965 453.679C197.34 453.958 232.236 455.799 253.693 464.884C264.696 469.596 261.42 485.859 249.472 486.056Z" fill="#5886FF" stroke="#5886FF" stroke-width="7" stroke-miterlimit="10"/>
<path d="M146.478 94H268.955C271.385 127.609 259.936 196.577 200.547 231.992C184.274 241.696 165.424 247.5 146.478 247.5V247.5" stroke="black"/>
<path d="M146.777 94H24.2994C21.869 127.609 33.3188 196.577 92.7075 231.992C108.981 241.696 127.83 247.5 146.777 247.5V247.5" stroke="black"/>
<path d="M268.955 94H146.478V247.5C165.424 247.5 184.274 241.696 200.547 231.992C259.936 196.577 271.385 127.609 268.955 94Z" fill="#FFE600" stroke="#FFE600"/>
<path d="M23.2994 94H145.777V247.5C126.83 247.5 107.981 241.696 91.7075 231.992C32.3188 196.577 20.869 127.609 23.2994 94Z" fill="#FFE600" stroke="#FFE600"/>
<path d="M96.9681 205.988C92.143 210.698 88.8012 210.206 86.4865 207.835C84.1717 205.464 83.7605 202.111 88.5856 197.401C92.215 195.211 94.4954 193.949 99.0831 193.386C100.335 193.232 101.363 194.335 101.169 195.581C100.505 199.851 99.7592 201.921 96.9681 205.988Z" fill="#FDFF9C"/>
<path d="M214.222 107.499C218.764 102.514 222.128 102.809 224.578 105.041C227.028 107.273 227.634 110.595 223.093 115.58C219.598 117.979 217.395 119.372 212.849 120.203C211.607 120.43 210.517 119.389 210.638 118.133C211.051 113.831 211.674 111.721 214.222 107.499Z" fill="#FDFF9C"/>
<path d="M131.719 129.404C129.633 125.805 130.434 123.881 132.202 122.856C133.971 121.831 136.038 122.093 138.123 125.692C138.796 127.906 139.193 129.378 139.028 131.648C138.936 132.906 137.596 133.645 136.452 133.114C134.561 132.237 133.479 131.406 131.719 129.404Z" fill="#FDFF9C"/>
<path d="M180.344 204.512C187.162 197.983 191.833 198.717 195.042 202.067C198.25 205.417 198.781 210.116 191.963 216.645C186.602 219.811 183.334 221.565 176.243 222.225C174.987 222.342 173.975 221.233 174.17 219.986C175.207 213.349 176.175 210.463 180.344 204.512Z" fill="#FDFF9C"/>
<path d="M49.7955 133.291C42.4181 139.18 37.8316 138.03 34.9375 134.404C32.0434 130.779 31.9376 126.051 39.315 120.162C44.9391 117.492 48.3525 116.039 55.4738 116.019C56.7355 116.016 57.6431 117.212 57.3369 118.436C55.7072 124.952 54.4829 127.74 49.7955 133.291Z" fill="#FDFF9C"/>
<path d="M174.495 191.429C152.656 208.862 139.079 205.456 130.512 194.724C121.945 183.992 121.632 169.998 143.47 152.565C161.33 144.085 171.659 139.752 196.086 140.357C197.348 140.388 198.252 141.579 197.957 142.806C192.491 165.526 189.436 173.733 174.495 191.429Z" fill="#FDFF9C"/>
</svg>
