<svg width="292" height="493" viewBox="0 0 292 493" fill="none" xmlns="http://www.w3.org/2000/svg">
<path d="M249.472 486.056L52.3581 489.311C40.4682 489.508 36.5974 473.286 47.4396 468.29C68.585 458.502 103.402 455.51 122.756 454.59C126.584 454.417 130.194 452.764 132.822 449.98C135.451 447.197 136.894 443.502 136.844 439.677L135.195 290.577C135.166 285.677 133.628 280.904 130.79 276.906C127.952 272.908 123.951 269.878 119.33 268.228C-28.5816 216.514 1.8125 72.4165 16.9103 23.6767C18.3884 18.9148 21.3367 14.7416 25.3335 11.7539C29.3303 8.76621 34.1709 7.11713 39.1629 7.04248L249.251 3.57258C253.491 3.49811 257.647 4.7542 261.135 7.16384C264.622 9.57347 267.263 13.0152 268.688 17.0038C284.937 62.6147 324.056 209.896 174.966 267.426C170.53 269.102 166.72 272.107 164.059 276.029C161.399 279.951 160.017 284.598 160.104 289.334L163.393 439.239C163.47 443.064 165.033 446.709 167.752 449.404C170.472 452.098 174.134 453.631 177.965 453.679C197.34 453.958 232.236 455.799 253.693 464.884C264.696 469.596 261.42 485.859 249.472 486.056Z" fill="#5886FF" stroke="#5886FF" stroke-width="7" stroke-miterlimit="10"/>
<path d="M257.732 127H148V253C164.96 253 181.88 248.279 196.741 240.107C249.689 210.988 259.905 154.537 257.732 127Z" fill="#593B41" stroke="#593B41" stroke-width="11"/>
<path d="M37.2682 127H147V253C130.04 253 113.12 248.279 98.2591 240.107C45.3106 210.988 35.0948 154.537 37.2682 127Z" fill="#593B41" stroke="#593B41" stroke-width="11"/>
<rect x="66" y="143" width="52" height="52" rx="8" fill="#BFFFFB"/>
<rect x="103" y="171" width="52" height="52" rx="8" fill="#BFFFFB"/>
<rect x="129" y="132" width="52" height="52" rx="8" fill="#BFFFFB"/>
<rect x="161" y="166" width="52" height="52" rx="8" fill="#BFFFFB"/>
<rect x="198" y="111" width="52" height="52" rx="8" fill="#BFFFFB"/>
<path d="M257.729 127H147V253C164.112 253 181.189 248.284 196.213 240.091C249.618 210.968 259.922 154.532 257.729 127Z" fill="#593B41" fill-opacity="0.4"/>
<path d="M37.2682 127H147V253C130.04 253 113.12 248.279 98.2591 240.107C45.3106 210.988 35.0948 154.537 37.2682 127Z" fill="#593B41" fill-opacity="0.4"/>
<rect x="48" y="132" width="13" height="11" fill="white"/>
<rect x="129" y="195" width="13" height="11" fill="white"/>
<rect x="211" y="132" width="13" height="11" fill="white"/>
<rect x="129" y="127" width="13" height="11" fill="white"/>
<rect x="192" y="197" width="13" height="11" fill="white"/>
</svg>
