<svg width="292" height="493" viewBox="0 0 292 493" fill="none" xmlns="http://www.w3.org/2000/svg">
<path d="M249.472 486.056L52.3581 489.311C40.4682 489.508 36.5974 473.286 47.4396 468.29C68.585 458.502 103.402 455.51 122.756 454.59C126.584 454.417 130.194 452.764 132.822 449.98C135.451 447.197 136.894 443.502 136.844 439.677L135.195 290.577C135.166 285.677 133.628 280.904 130.79 276.906C127.952 272.908 123.951 269.878 119.33 268.228C-28.5816 216.514 1.8125 72.4165 16.9103 23.6767C18.3884 18.9148 21.3367 14.7416 25.3335 11.7539C29.3303 8.76621 34.1709 7.11713 39.1629 7.04248L249.251 3.57258C253.491 3.49811 257.647 4.7542 261.135 7.16384C264.622 9.57347 267.263 13.0152 268.688 17.0038C284.937 62.6147 324.056 209.896 174.966 267.426C170.53 269.102 166.72 272.107 164.059 276.029C161.399 279.951 160.017 284.598 160.104 289.334L163.393 439.239C163.47 443.064 165.033 446.709 167.752 449.404C170.472 452.098 174.134 453.631 177.965 453.679C197.34 453.958 232.236 455.799 253.693 464.884C264.696 469.596 261.42 485.859 249.472 486.056Z" fill="#5886FF" stroke="#5886FF" stroke-width="7" stroke-miterlimit="10"/>
<path d="M257.729 136H147V262C164.112 262 181.189 257.284 196.213 249.091C249.618 219.968 259.922 163.532 257.729 136Z" fill="#8FAEFF"/>
<path d="M37.2682 136H147V262C130.04 262 113.12 257.279 98.2591 249.107C45.3106 219.988 35.0948 163.537 37.2682 136Z" fill="#8FAEFF"/>
<rect x="37" y="95" width="221" height="41" fill="#FFF742"/>
<rect x="37" y="54" width="221" height="41" fill="#FFFDCB"/>
<path d="M201.495 217.429C179.656 234.862 166.079 231.456 157.512 220.724C148.945 209.992 148.632 195.998 170.47 178.565C188.33 170.085 198.659 165.752 223.086 166.357C224.348 166.388 225.252 167.579 224.957 168.806C219.491 191.526 216.436 199.733 201.495 217.429Z" fill="#0B8900"/>
<path d="M167.822 179.366C179.006 204.973 172.201 217.206 159.617 222.702C147.033 228.198 133.435 224.877 122.251 199.27C118.684 179.823 117.173 168.724 124.082 145.287C124.439 144.077 125.823 143.512 126.932 144.114C147.462 155.277 154.598 160.353 167.822 179.366Z" fill="#0B8900"/>
<path d="M182.032 130.312C189.343 147.053 184.894 155.049 176.667 158.643C168.44 162.236 159.551 160.065 152.239 143.324C149.949 130.839 148.955 123.617 153.198 108.849C153.547 107.637 154.938 107.068 156.045 107.672C168.897 114.691 173.549 118.115 182.032 130.312Z" fill="#085F01"/>
<path d="M202.3 148.87C191.56 163.648 182.412 163.857 175.149 158.579C167.887 153.302 165.261 144.536 176.001 129.758C185.61 121.465 191.336 116.953 206.221 113.14C207.443 112.827 208.638 113.739 208.676 115C209.126 129.637 208.527 135.381 202.3 148.87Z" fill="#085F01"/>
<path d="M197.086 95.8052C194.412 110.191 187.869 113.494 180.8 112.18C173.731 110.866 168.812 105.433 171.485 91.0473C175.523 81.8619 178.094 76.6428 187.243 68.9283C188.207 68.1149 189.671 68.4233 190.247 69.5461C195.438 79.6679 196.943 84.0704 197.086 95.8052Z" fill="#0B8900"/>
</svg>
