<svg width="292" height="493" viewBox="0 0 292 493" fill="none" xmlns="http://www.w3.org/2000/svg">
<path d="M249.472 486.056L52.3581 489.311C40.4682 489.508 36.5974 473.286 47.4396 468.29C68.585 458.502 103.402 455.51 122.756 454.59C126.584 454.417 130.194 452.764 132.822 449.98C135.451 447.197 136.894 443.502 136.844 439.677L135.195 290.577C135.166 285.677 133.628 280.904 130.79 276.906C127.952 272.908 123.951 269.878 119.33 268.228C-28.5816 216.514 1.8125 72.4165 16.9103 23.6767C18.3884 18.9148 21.3367 14.7416 25.3335 11.7539C29.3303 8.76621 34.1709 7.11713 39.1629 7.04248L249.251 3.57258C253.491 3.49811 257.647 4.7542 261.135 7.16384C264.622 9.57347 267.263 13.0152 268.688 17.0038C284.937 62.6147 324.056 209.896 174.966 267.426C170.53 269.102 166.72 272.107 164.059 276.029C161.399 279.951 160.017 284.598 160.104 289.334L163.393 439.239C163.47 443.064 165.033 446.709 167.752 449.404C170.472 452.098 174.134 453.631 177.965 453.679C197.34 453.958 232.236 455.799 253.693 464.884C264.696 469.596 261.42 485.859 249.472 486.056Z" fill="#5886FF" stroke="#5886FF" stroke-width="7" stroke-miterlimit="10"/>
<path d="M66.9943 38H147L146 264C121.773 264 97.5248 256.111 78.0645 241.68C25.7606 202.894 17.4256 136.67 17.872 84.8836C18.0995 58.4867 40.5964 38 66.9943 38Z" fill="#593B41"/>
<path d="M227.034 38H143V264C143.473 264 144.159 263.959 145.019 263.884C168.581 261.836 192.247 255.734 211.649 242.209C266.993 203.631 276.223 136.922 275.996 84.7943C275.881 58.4341 253.394 38 227.034 38Z" fill="#593B41"/>
<path d="M98.5 225.5L96.0995 222.064C82.4316 202.5 83.4117 176.241 98.5 157.75V157.75V157.75C112.384 137.679 112.611 111.167 99.0736 90.8604L98.5 90" stroke="#FFC9D4" stroke-width="10"/>
<path d="M146.5 225.5L144.099 222.064C130.432 202.5 131.412 176.241 146.5 157.75V157.75V157.75C160.384 137.679 160.611 111.167 147.074 90.8604L146.5 90" stroke="#FFC9D4" stroke-width="10"/>
<path d="M192.5 225.5L190.099 222.064C176.432 202.5 177.412 176.241 192.5 157.75V157.75V157.75C206.384 137.679 206.611 111.167 193.074 90.8604L192.5 90" stroke="#FFC9D4" stroke-width="10"/>
<rect x="82" y="151" width="52" height="52" rx="8" fill="#420B16"/>
<rect x="186" y="79" width="52" height="52" rx="8" fill="#420B16"/>
<rect x="156" y="187" width="52" height="52" rx="8" fill="#420B16"/>
<rect x="33" y="64" width="52" height="52" rx="8" fill="#420B16"/>
<rect x="121" y="73" width="52" height="52" rx="8" fill="#420B16"/>
</svg>
