<svg width="398" height="578" viewBox="0 0 398 578" fill="none" xmlns="http://www.w3.org/2000/svg">
<ellipse cx="198" cy="176" rx="89" ry="95" fill="white"/>
<ellipse cx="198.731" cy="58.8047" rx="55.7657" ry="58.8047" fill="white"/>
<path d="M191.937 154.929C191.937 181.918 169.078 204.079 140.525 204.079C111.973 204.079 89.1133 181.918 89.1133 154.929C89.1133 127.939 111.973 105.778 140.525 105.778C169.078 105.778 191.937 127.939 191.937 154.929Z" stroke="#1E2165" stroke-width="8"/>
<path d="M300.5 154.929C300.5 181.995 278.068 204.079 250.219 204.079C222.369 204.079 199.938 181.995 199.938 154.929C199.938 127.863 222.369 105.778 250.219 105.778C278.068 105.778 300.5 127.863 300.5 154.929Z" stroke="#1E2165" stroke-width="8"/>
<ellipse cx="167.654" cy="153.309" rx="5.6543" ry="11.3086" fill="#1E2165"/>
<ellipse cx="222.785" cy="153.309" rx="6.78516" ry="11.3086" fill="#1E2165"/>
<path d="M169.321 247.917H240V577.042H0C0 448.542 24.5735 352.642 38 319.543C49.0338 288.498 60.6045 269.195 71.6556 257.739C95.0332 233.506 135.649 247.917 169.321 247.917Z" fill="white"/>
<path d="M228.679 247.917H158V577.042H398C398 448.542 373.427 352.642 360 319.543C348.966 288.498 337.395 269.195 326.344 257.739C302.967 233.506 262.351 247.917 228.679 247.917Z" fill="white"/>
</svg>
