<svg width="398" height="578" viewBox="0 0 398 578" fill="none" xmlns="http://www.w3.org/2000/svg">
<ellipse cx="198" cy="176" rx="89" ry="95" fill="white"/>
<ellipse cx="198.731" cy="58.8047" rx="55.7657" ry="58.8047" fill="white"/>
<path d="M191.937 154.929C191.937 181.918 169.078 204.079 140.525 204.079C111.973 204.079 89.1133 181.918 89.1133 154.929C89.1133 127.939 111.973 105.778 140.525 105.778C169.078 105.778 191.937 127.939 191.937 154.929Z" stroke="#1E2165" stroke-width="8"/>
<path d="M300.5 154.929C300.5 181.995 278.068 204.079 250.219 204.079C222.369 204.079 199.938 181.995 199.938 154.929C199.938 127.863 222.369 105.778 250.219 105.778C278.068 105.778 300.5 127.863 300.5 154.929Z" stroke="#1E2165" stroke-width="8"/>
<ellipse cx="167.654" cy="153.309" rx="5.6543" ry="11.3086" fill="#1E2165"/>
<ellipse cx="222.785" cy="153.309" rx="6.78516" ry="11.3086" fill="#1E2165"/>
<path d="M169.321 247.917H240V577.042H0C0 448.542 24.5735 352.642 38 319.543C49.0338 288.498 60.6045 269.195 71.6556 257.739C95.0332 233.506 135.649 247.917 169.321 247.917Z" fill="white"/>
<path d="M228.679 247.917H158V577.042H398C398 448.542 373.427 352.642 360 319.543C348.966 288.498 337.395 269.195 326.344 257.739C302.967 233.506 262.351 247.917 228.679 247.917Z" fill="white"/>
<path d="M74 121.138V121.138C82.5652 117.767 89.3912 111.057 92.9095 102.552L93.1378 102V102C96.0345 110.754 102.784 117.696 111.452 120.839L112.276 121.138L112.001 121.228C103.031 124.198 96.0202 131.277 93.1378 140.275V140.275V140.275C90.5573 131.324 83.6878 124.247 74.8177 121.4L74 121.138Z" fill="#5886FF"/>
<path d="M285.419 171.431V171.431C293.984 168.06 300.81 161.35 304.328 152.845L304.557 152.293V152.293C307.453 161.047 314.203 167.989 322.871 171.132L323.694 171.431L323.42 171.521C314.45 174.491 307.439 181.57 304.557 190.568V190.568V190.568C301.976 181.617 295.107 174.54 286.237 171.693L285.419 171.431Z" fill="#5886FF"/>
<path d="M87.0391 163.98V163.98C95.6042 160.609 102.43 153.9 105.949 145.394L106.177 144.843V144.843C109.074 153.596 115.823 160.539 124.491 163.682L125.315 163.98L125.04 164.071C116.07 167.041 109.059 174.119 106.177 183.118V183.118V183.118C103.596 174.167 96.7268 167.089 87.8568 164.243L87.0391 163.98Z" fill="#5886FF"/>
<path d="M255.615 209.616V209.616C264.18 206.245 271.006 199.536 274.525 191.03L274.753 190.478V190.478C277.65 199.232 284.399 206.175 293.068 209.318L293.891 209.616L293.616 209.707C284.646 212.676 277.635 219.755 274.753 228.754V228.754V228.754C272.173 219.803 265.303 212.725 256.433 209.879L255.615 209.616Z" fill="#5886FF"/>
</svg>
