<svg width="912" height="286" viewBox="0 0 912 286" fill="none" xmlns="http://www.w3.org/2000/svg">
<path d="M43.5926 162.395C41.1191 145.081 74.8441 120.925 92.545 113.278C89.4542 118.088 83.117 127.468 79.3492 137.91C74.0198 152.679 73.9079 159.286 70.7986 168.225C66.6607 180.121 46.3132 181.439 43.5926 162.395Z" fill="white" stroke="white" stroke-width="11"/>
<path d="M8.81869 273.633C-2.81706 263.944 21.8966 232.254 34.6538 219.915C32.0148 234.104 39.2169 263.913 36.2959 270.973C32.6447 279.798 23.3634 285.744 8.81869 273.633Z" fill="white" stroke="white" stroke-width="11"/>
<path d="M88.2025 256.838C72.5414 251.699 83.2351 207.479 88.2025 189.6C92.1746 204.369 109.695 230.381 110.83 239.737C112.248 251.433 107.779 263.262 88.2025 256.838Z" fill="white" stroke="white" stroke-width="11"/>
<path d="M129.867 142.997L116.307 89.0511C115.574 86.136 116.05 83.0441 117.629 80.4557C119.208 77.8672 121.761 75.9942 124.727 75.2487L314.82 27.4645C317.64 26.7577 320.228 25.3366 322.326 23.3429C324.425 21.3493 325.96 18.8527 326.78 16.1025L326.959 15.4671C331.842 -0.384727 340.824 -14.7436 353.02 -26.1945C365.216 -37.6454 380.206 -45.7931 396.511 -49.8348L841.723 -161.749C847.87 -163.294 854.368 -162.376 859.788 -159.196C865.209 -156.017 869.107 -150.836 870.626 -144.795L905.381 -6.53361C906.9 -0.491952 905.914 5.91606 902.642 11.2807C899.369 16.6454 894.077 20.5273 887.93 22.0725L442.718 133.986C427.531 137.907 411.677 138.47 396.299 135.634C380.685 132.641 362.99 125.661 351.016 110.007C348.909 107.281 346.03 105.232 342.737 104.114C339.444 102.996 335.882 102.858 332.494 103.718L143.474 150.93C140.587 151.656 137.535 151.229 134.986 149.742C132.436 148.256 130.596 145.831 129.867 142.997V142.997Z" fill="#5886FF" stroke="#5886FF" stroke-width="7" stroke-miterlimit="10"/>
</svg>
