<svg width="145" height="192" viewBox="0 0 145 192" fill="none" xmlns="http://www.w3.org/2000/svg">
<path d="M13.827 22.1738L24.6352 19.6908C25.2192 19.5566 25.8329 19.661 26.3412 19.9809C26.8495 20.3008 27.2107 20.8101 27.3455 21.3967L35.9832 58.9947C36.111 59.5524 36.382 60.0669 36.7694 60.4871C37.1568 60.9072 37.647 61.2183 38.191 61.3892L38.3167 61.4266C41.4516 62.4432 44.2701 64.2618 46.4945 66.7031C48.7189 69.1445 50.2724 72.1244 51.002 75.3491L71.2322 163.406C71.5115 164.622 71.2985 165.899 70.6401 166.955C69.9817 168.011 68.9318 168.761 67.7213 169.039L40.0206 175.403C38.8101 175.681 37.5383 175.465 36.4849 174.802C35.4315 174.139 34.6827 173.083 34.4034 171.867L14.1732 83.8101C13.4627 80.8059 13.424 77.6821 14.06 74.6637C14.7284 71.5994 16.2008 68.1393 19.3743 65.8357C19.927 65.4303 20.3485 64.8705 20.5864 64.226C20.8244 63.5814 20.8683 62.8805 20.7127 62.2104L12.184 24.8256C12.0528 24.2546 12.152 23.6552 12.4599 23.1583C12.7678 22.6614 13.2593 22.3075 13.827 22.1738V22.1738Z" fill="white" stroke="white" stroke-width="7" stroke-miterlimit="10"/>
<path d="M98.2285 173.795L70.1706 162.831C68.4781 162.169 68.8711 159.651 70.6935 159.574C74.2505 159.415 79.3465 161.01 82.1363 162.002C82.6875 162.199 83.2937 162.175 83.8267 161.933C84.3597 161.692 84.7778 161.254 84.9925 160.71L93.401 139.534C93.6809 138.839 93.7401 138.075 93.5706 137.345C93.401 136.615 93.0109 135.955 92.4532 135.454C74.5378 119.57 87.1869 100.958 92.1464 94.9418C92.6314 94.3542 93.2901 93.935 94.0283 93.7442C94.7666 93.5535 95.5466 93.6009 96.2567 93.8796L126.161 105.565C126.765 105.801 127.28 106.219 127.633 106.762C127.987 107.305 128.161 107.945 128.131 108.591C127.785 115.982 124.78 139.073 100.366 138.565C99.6415 138.545 98.9287 138.749 98.3252 139.15C97.7217 139.55 97.257 140.127 96.9948 140.801L88.7716 162.187C88.5607 162.732 88.5705 163.338 88.7988 163.876C89.0271 164.415 89.456 164.844 89.995 165.073C92.7181 166.235 97.5452 168.518 100.052 171.046C101.335 172.35 99.9292 174.459 98.2285 173.795Z" fill="white" stroke="white" stroke-width="7" stroke-miterlimit="10"/>
</svg>
