<svg width="419" height="598" viewBox="0 0 419 598" fill="none" xmlns="http://www.w3.org/2000/svg">
<rect width="419" height="597" fill="#000A23"/>
<path d="M300.134 199.121C300.134 249.644 259.553 290.593 209.503 290.593C159.452 290.593 118.871 249.644 118.871 199.121C118.871 148.599 159.452 107.65 209.503 107.65C259.553 107.65 300.134 148.599 300.134 199.121Z" fill="white" stroke="white"/>
<path d="M210.002 233.385L284.88 237.947L209.988 196.662L210.002 233.385Z" fill="#1E2165"/>
<path d="M210.002 233.385L138.084 238.003L209.988 196.662L210.002 233.385Z" fill="#1E2165"/>
<path d="M272.105 117.056C272.054 156.3 244.096 124.082 209.556 124.082C175.016 124.082 146.974 156.3 147.025 117.056C147.076 77.813 175.117 46 209.657 46C244.197 46 272.156 77.813 272.105 117.056Z" fill="#1E2165"/>
<ellipse cx="133.944" cy="23.6155" rx="133.944" ry="23.6155" transform="matrix(1 0 -0.00129499 0.999999 76.061 96.1104)" fill="#1E2165"/>
<ellipse cx="176.49" cy="176.582" rx="5.25025" ry="10.9283" fill="#1E2165"/>
<ellipse cx="237.393" cy="176.582" rx="7.35035" ry="10.9283" fill="#1E2165"/>
<rect x="167.632" y="150.431" width="14.0274" height="4.00149" fill="#1E2165"/>
<rect x="227.749" y="161.435" width="26.051" height="8.00298" fill="#1E2165"/>
<path d="M40.6616 305.087C69.0357 260.626 114.224 258.692 133.271 263.282L216.522 269.184V597.231H18.4944C2.23843 476.734 5.19406 360.663 40.6616 305.087Z" fill="white"/>
<path d="M377.974 305.087C349.6 260.626 304.411 258.692 285.364 263.282L202.114 269.184V597.231H400.141C416.397 476.734 413.441 360.663 377.974 305.087Z" fill="white"/>
</svg>
