<svg width="419" height="598" viewBox="0 0 419 598" fill="none" xmlns="http://www.w3.org/2000/svg">
<rect width="419" height="597" fill="#000A23"/>
<path d="M300.134 199.12C300.134 249.643 259.553 290.592 209.503 290.592C159.452 290.592 118.871 249.643 118.871 199.12C118.871 148.598 159.452 107.649 209.503 107.649C259.553 107.649 300.134 148.598 300.134 199.12Z" fill="white" stroke="white"/>
<path d="M212.969 201.254L138.098 196.583L212.929 237.977L212.969 201.254Z" fill="#1E2165"/>
<path d="M212.969 201.254L284.894 196.742L212.929 237.977L212.969 201.254Z" fill="#1E2165"/>
<path d="M320.52 130.484C302.469 165.329 292.41 123.874 261.721 108.026C231.031 92.1782 191.333 107.938 209.384 73.0927C227.436 38.2476 266.948 22.8475 297.637 38.6956C328.327 54.5438 338.572 95.6388 320.52 130.484Z" fill="#1E2165"/>
<ellipse cx="133.944" cy="23.6155" rx="133.944" ry="23.6155" transform="matrix(0.888521 0.458837 -0.459987 0.887926 154.342 22.2744)" fill="#1E2165"/>
<ellipse cx="176.49" cy="176.581" rx="5.25025" ry="10.9283" fill="#1E2165"/>
<ellipse cx="237.393" cy="176.581" rx="7.35035" ry="10.9283" fill="#1E2165"/>
<rect x="167.632" y="150.43" width="14.0274" height="4.00149" fill="#1E2165"/>
<rect x="227.749" y="161.435" width="26.051" height="8.00298" fill="#1E2165"/>
<path d="M40.6616 305.086C69.0357 260.625 114.224 258.691 133.271 263.281L216.522 269.183V597.23H18.4944C2.23843 476.733 5.19406 360.662 40.6616 305.086Z" fill="white"/>
<path d="M377.974 305.086C349.6 260.625 304.411 258.691 285.364 263.281L202.114 269.183V597.23H400.141C416.397 476.733 413.441 360.662 377.974 305.086Z" fill="white"/>
</svg>
