<svg width="514" height="380" viewBox="0 0 514 380" fill="none" xmlns="http://www.w3.org/2000/svg">
<path d="M742.51 172.434C775.682 230.555 676.167 332.62 671.511 335.766L657.394 380.762L50.6735 379.136C42.0001 361.815 20.4725 314.838 3.7496 265.507C-12.9733 216.175 34.1522 206.72 59.8052 208.159C81.5014 112.995 168.303 144.681 208.991 172.419C200.413 108.296 250.986 69.0107 287.139 68.9327C316.062 68.8703 329.614 97.5451 332.775 111.89C331.774 72.2803 347.613 -5.33361 418.977 1.08945C490.342 7.51252 498.524 85.5623 493.694 123.784C498.519 98.2593 525.487 46.5206 594.764 43.7661C664.042 41.0116 647.606 132.297 630.729 178.284C656.932 156.961 715.972 125.938 742.51 172.434Z" fill="#5886FF"/>
</svg>
