<svg width="425" height="388" viewBox="0 0 425 388" fill="none" xmlns="http://www.w3.org/2000/svg">
<path d="M408.994 197.093C437.932 247.795 351.12 336.832 347.058 339.576L334.743 378.828L-194.532 377.41C-202.098 362.299 -220.878 321.32 -235.466 278.285C-250.054 235.251 -208.944 227.002 -186.566 228.257C-167.639 145.241 -91.9176 172.882 -56.4228 197.08C-63.9059 141.142 -19.7884 106.871 11.7497 106.803C36.9803 106.748 48.8032 131.763 51.5608 144.277C50.6872 109.723 64.504 42.0164 126.759 47.6196C189.014 53.2227 196.152 121.31 191.939 154.653C196.147 132.386 219.673 87.2516 280.108 84.8487C340.542 82.4458 326.205 162.079 311.482 202.196C334.34 183.594 385.844 156.532 408.994 197.093Z" fill="#5886FF"/>
<path d="M175.238 4.41211H199.256C200.554 4.41211 201.799 4.92165 202.717 5.82863C203.634 6.73561 204.15 7.96573 204.15 9.24839V91.459C204.149 92.6781 204.472 93.8762 205.086 94.9337C205.7 95.9911 206.584 96.871 207.649 97.4855L207.896 97.6233C214.02 101.231 219.088 106.352 222.599 112.484C226.111 118.616 227.945 125.547 227.921 132.592V325.135C227.921 327.794 226.852 330.343 224.95 332.223C223.048 334.103 220.468 335.159 217.779 335.159H156.221C153.531 335.159 150.952 334.103 149.05 332.223C147.148 330.343 146.079 327.794 146.079 325.135V132.592C146.036 126.014 147.469 119.507 150.275 113.542C153.172 107.496 157.958 101.012 165.774 97.7424C167.137 97.164 168.298 96.2025 169.113 94.9774C169.928 93.7522 170.361 92.3174 170.357 90.8513L170.484 9.13563C170.484 7.8872 170.984 6.68954 171.875 5.80443C172.766 4.91931 173.975 4.41873 175.238 4.41211V4.41211Z" fill="white" stroke="white" stroke-width="7" stroke-miterlimit="10"/>
<path d="M265.112 322.455L254.641 258.865C254.009 255.029 259.071 253.002 261.204 256.27C265.38 262.64 268.011 273.757 269.233 279.972C269.472 281.202 270.18 282.29 271.205 283.007C272.231 283.725 273.495 284.015 274.73 283.816L322.869 276.158C324.453 275.915 325.923 275.19 327.08 274.081C328.238 272.972 329.026 271.533 329.339 269.96C338.996 219.655 387.049 222.599 403.533 225.153C405.144 225.403 406.634 226.157 407.791 227.307C408.948 228.457 409.713 229.944 409.976 231.555L421.136 299.331C421.362 300.698 421.155 302.103 420.542 303.346C419.93 304.588 418.943 305.607 417.721 306.258C403.747 313.693 357.985 333.381 332.257 287.914C331.503 286.559 330.349 285.471 328.953 284.798C327.558 284.125 325.989 283.9 324.462 284.154L276.14 292.381C274.906 292.588 273.802 293.268 273.061 294.276C272.319 295.284 271.998 296.542 272.166 297.783C273.002 304.062 274.073 315.436 272.161 322.809C271.163 326.592 265.747 326.31 265.112 322.455Z" fill="white" stroke="white" stroke-width="7" stroke-miterlimit="10"/>
</svg>
