<svg width="129" height="63" viewBox="0 0 129 63" fill="none" xmlns="http://www.w3.org/2000/svg">
<rect x="0.5" y="0.5" width="128" height="62" fill="#000A23" stroke="white"/>
<path d="M30.5096 52H24.3933V23.0773H22V22.2652L25.2177 11H30.5096V52Z" fill="white"/>
<path d="M56.2245 48.2537C56.2245 50.7512 54.9746 52 52.475 52H39.4978C37.0336 52 35.8015 50.7512 35.8015 48.2537V14.7725C35.8015 12.2575 37.0602 11 39.5776 11H52.475C54.9746 11 56.2245 12.2575 56.2245 14.7725V48.2537ZM50.1348 46.7342V16.2658H41.9177V46.7342H50.1348Z" fill="white"/>
<path d="M81.6469 48.2537C81.6469 50.7512 80.397 52 77.8973 52H64.9202C62.456 52 61.2239 50.7512 61.2239 48.2537V14.7725C61.2239 12.2575 62.4826 11 65 11H77.8973C80.397 11 81.6469 12.2575 81.6469 14.7725V48.2537ZM75.5572 46.7342V16.2658H67.3401V46.7342H75.5572Z" fill="white"/>
<path d="M108 36.5955H99.8893V44.4288H94.2251V36.5955H86.1144V31.5131H94.2251V23.6799H99.8893V31.5131H108V36.5955Z" fill="white"/>
</svg>
