<svg width="877" height="446" viewBox="0 0 877 446" fill="none" xmlns="http://www.w3.org/2000/svg">
<path d="M868.233 201.484C907.022 269.445 790.658 388.792 785.213 392.471L768.706 445.085L59.2587 443.184C49.1167 422.929 23.9441 368 4.38981 310.315C-15.1644 252.631 39.94 241.575 69.9365 243.257C95.3062 131.981 196.804 169.032 244.382 201.467C234.352 126.487 293.487 80.5495 335.761 80.4584C369.581 80.3854 385.428 113.915 389.125 130.689C387.954 84.3728 406.474 -6.38236 489.922 1.12822C573.369 8.6388 582.937 99.9036 577.289 144.597C582.931 114.75 614.465 54.2515 695.472 51.0306C776.479 47.8098 757.261 154.551 737.526 208.324C768.166 183.391 837.202 147.116 868.233 201.484Z" fill="#5886FF"/>
</svg>
