<svg width="121" height="276" viewBox="0 0 121 276" fill="none" xmlns="http://www.w3.org/2000/svg">
<path d="M53.4101 27.7907C48.205 29.5132 43.9614 32.228 40.5486 35.4011C28.462 46.6391 28.7837 65.0694 28.7837 81.5733L28.7836 275.608H1L1.00008 98.6076C1.0001 70.7601 0.357651 40.2868 18.8946 19.5056C29.0046 8.17156 44.392 -0.959334 67.473 0.0808882C99.9216 1.54329 114.841 24.2524 120.396 42.759C122.619 50.1651 116.484 56.7724 108.751 56.7724C101.842 56.7724 96.373 51.275 93.2885 45.0932C90.2108 38.925 85.4353 34.4276 80.5557 31.3059C72.5623 26.192 62.419 24.8095 53.4101 27.7907Z" fill="#1E2165"/>
</svg>
