<svg width="470" height="340" viewBox="0 0 470 340" fill="none" xmlns="http://www.w3.org/2000/svg">
<rect x="341" y="133" width="19" height="11" fill="#FF5858"/>
<ellipse cx="180" cy="143.5" rx="180" ry="23.5" fill="#FF5858"/>
<ellipse cx="180" cy="133" rx="180" ry="24" fill="#FF5858"/>
<ellipse cx="189.5" cy="320" rx="106.5" ry="14" transform="rotate(180 189.5 320)" fill="#FF5858"/>
<path d="M87.7576 4H97.442C97.9653 4 98.4672 4.20644 98.8373 4.57389C99.2073 4.94135 99.4152 5.43973 99.4152 5.95939V39.2665C99.4149 39.7604 99.545 40.2458 99.7925 40.6743C100.04 41.1027 100.396 41.4592 100.826 41.7081L100.926 41.764C103.395 43.2254 105.438 45.3005 106.854 47.7848C108.27 50.2692 109.01 53.0769 109 55.9315V133.939C109 135.016 108.569 136.049 107.802 136.811C107.035 137.572 105.995 138 104.91 138H80.0899C79.0053 138 77.9651 137.572 77.1982 136.811C76.4312 136.049 76.0004 135.016 76.0004 133.939V55.9315C75.983 53.2662 76.5609 50.6302 77.6924 48.2132C78.8605 45.764 80.7902 43.1371 83.9416 41.8122C84.4913 41.5779 84.9595 41.1883 85.288 40.692C85.6166 40.1956 85.791 39.6143 85.7896 39.0203L85.8407 5.91371C85.8407 5.40791 86.0423 4.92269 86.4015 4.56409C86.7607 4.20549 87.2483 4.00268 87.7576 4V4Z" fill="#5886FF" stroke="#5886FF" stroke-width="7" stroke-miterlimit="10"/>
<path d="M161.016 132.433C151.368 127.49 161.347 127.317 167.542 127.849C174.069 123.264 187.405 123.164 221.456 122.466C255.507 121.769 230.252 120.872 285.301 127.849H323.75C342.251 127.849 343.187 130.905 341.343 132.433C341.343 132.433 345.495 153.56 343.419 153.99C341.343 154.42 341.343 141.005 341.343 141.005C330.367 148.252 319.181 137.895 291.827 141.005C273.099 145.689 279.768 141.005 269.836 141.005C259.905 141.005 254.513 137.118 240.184 132.433C225.854 127.749 223.726 132.433 196.202 141.005C168.677 149.576 173.076 138.613 161.016 132.433Z" fill="white" stroke="white" stroke-width="11"/>
<path d="M372.168 329.971C361.486 330.307 348.898 330.59 340.117 330.475C330.852 330.354 321.675 329.913 315.714 329.599C312.948 329.575 310.738 329.507 309.69 329.383C307.615 329.139 310.373 329.318 315.714 329.599C324.536 329.678 339.011 329.317 339.489 328.923C340.117 328.406 343.567 327.027 326.628 326.797C309.69 326.567 279.891 325.705 309.69 325.302C339.489 324.9 333.216 323.06 354.859 324.612C376.503 326.164 381.208 326.797 396.578 326.797C411.948 326.797 410.066 326.337 421.672 326.107C433.277 325.877 443.001 324.497 450.216 325.302C457.43 326.107 468.409 322.83 462.135 326.107C455.862 329.383 439.237 328.291 438.61 329.383C437.983 330.475 436.414 329.728 444.883 330.475C444.883 333.637 452.412 334.672 434.846 333.579C397.456 332.108 366.473 332.755 358.526 333.005C359.055 333.096 359.912 333.169 360.656 333.217C363.052 333.318 362.058 333.309 360.656 333.217C359.547 333.171 357.713 333.101 354.859 333.005C348.43 331.617 359.677 330.593 372.168 329.971Z" fill="white"/>
<path d="M388.109 329.383C377.966 329.824 354.169 330.659 340.117 330.475C322.551 330.245 305.299 328.866 309.69 329.383C314.082 329.901 338.862 329.441 339.489 328.923C340.117 328.406 343.567 327.027 326.628 326.797C309.69 326.567 279.891 325.705 309.69 325.302C339.489 324.9 333.216 323.06 354.859 324.612C376.503 326.164 381.208 326.797 396.578 326.797C411.948 326.797 410.066 326.337 421.672 326.107C433.277 325.877 443.001 324.497 450.216 325.302C457.43 326.107 468.409 322.83 462.135 326.107C455.862 329.383 439.237 328.291 438.61 329.383C437.983 330.475 436.414 329.728 444.883 330.475C444.883 333.637 452.412 334.672 434.846 333.579C397.456 332.108 366.473 332.755 358.526 333.005C360.513 333.349 367.155 333.418 354.859 333.005C345.574 331.001 373.157 329.755 388.109 329.383Z" stroke="white" stroke-width="11"/>
<path d="M125.151 147.652L120.912 121.909C120.656 120.356 122.705 119.536 123.569 120.859C125.259 123.438 126.324 127.938 126.819 130.454C126.916 130.952 127.202 131.392 127.617 131.683C128.033 131.973 128.544 132.09 129.044 132.01L148.532 128.91C149.173 128.812 149.768 128.518 150.237 128.069C150.705 127.62 151.025 127.038 151.151 126.401C155.061 106.036 174.514 107.228 181.187 108.262C181.839 108.363 182.442 108.669 182.91 109.134C183.379 109.6 183.688 110.201 183.795 110.853L188.313 138.291C188.404 138.845 188.32 139.413 188.072 139.916C187.824 140.419 187.425 140.832 186.93 141.095C181.273 144.105 162.748 152.075 152.332 133.669C152.027 133.121 151.56 132.68 150.995 132.408C150.43 132.135 149.795 132.044 149.177 132.147L129.615 135.477C129.116 135.561 128.669 135.836 128.369 136.245C128.068 136.653 127.938 137.162 128.006 137.664C128.345 140.206 128.778 144.811 128.004 147.795C127.6 149.327 125.408 149.213 125.151 147.652Z" fill="#5886FF" stroke="#5886FF" stroke-width="7" stroke-miterlimit="10"/>
<rect x="172" y="167" width="23" height="153" fill="#FF5858"/>
<rect y="132" width="20" height="12" fill="#FF5858"/>
</svg>
