<svg width="372" height="849" viewBox="0 0 372 849" fill="none" xmlns="http://www.w3.org/2000/svg">
<line x1="223.013" y1="0.000149386" x2="222.984" y2="689.324" stroke="white" stroke-width="7"/>
<path d="M123.242 685.716L124.025 663.086L105.752 676.459L29.3781 732.349L18.0893 740.61L28.7795 749.632L101.104 810.672L118.408 825.276L119.192 802.646L119.619 790.324L343.98 811.412L355.599 812.505L356.003 800.841L359.36 703.9L359.764 692.236L348.097 692.522L122.815 698.039L123.242 685.716Z" fill="white" stroke="#FF5858" stroke-width="22"/>
<path d="M75.5992 751.466C73.7763 751.403 71.1322 750.783 70.0356 749.857L70.1253 747.266C71.4584 748.297 73.7634 749.001 75.6823 749.068C78.5126 749.166 79.6575 748.005 79.7056 746.613C79.7546 745.198 78.3868 743.782 75.7484 743.691L72.7262 743.586L72.8076 741.235L75.494 741.328C77.7247 741.406 79.097 740.613 79.1476 739.15C79.1892 737.95 78.4325 736.916 75.7941 736.824C74.1151 736.766 71.6685 737.378 70.7636 737.851L70.8508 735.332C71.8491 734.934 73.9104 734.357 76.189 734.436C79.9307 734.566 81.8196 736.192 81.7365 738.591C81.6634 740.702 80.076 742.16 78.6013 742.445C80.8922 742.86 82.4718 744.404 82.392 746.706C82.2965 749.465 80.0365 751.62 75.5992 751.466ZM90.6226 751.986C86.8329 751.855 84.2479 748.836 84.3733 745.214C84.4987 741.592 87.2873 738.735 91.077 738.866C92.8759 738.929 94.3629 739.677 95.1965 740.57L95.2381 739.371L97.8045 739.46L97.3751 751.86L94.7606 751.77L94.8286 750.499C93.9841 751.31 92.6374 752.056 90.6226 751.986ZM90.8943 749.691C93.1969 749.77 95.0738 748.274 95.1677 745.564C95.2607 742.878 93.4918 741.255 91.1892 741.176C88.8626 741.095 87.046 742.929 86.9646 745.28C86.8832 747.63 88.5677 749.61 90.8943 749.691ZM106.354 752.531C102.876 752.411 100.341 750.042 100.501 745.412C100.838 735.674 109.519 738.809 109.617 735.978L112.248 735.589C112.061 740.986 104.153 737.734 103.151 743.079C103.756 742.259 105.277 741.327 107.292 741.397C110.674 741.514 112.777 743.892 112.663 747.178C112.55 750.441 109.928 752.655 106.354 752.531ZM106.434 750.229C108.617 750.304 110.01 748.912 110.075 747.017C110.148 744.906 109.048 743.403 106.673 743.321C104.562 743.248 103.086 744.974 103.024 746.773C102.961 748.572 104.275 750.154 106.434 750.229ZM115.182 757.568L115.788 740.082L118.378 740.172L118.336 741.371C119.23 740.538 120.765 739.895 122.564 739.957C126.354 740.088 128.938 743.131 128.812 746.753C128.687 750.375 125.899 753.208 122.11 753.077C120.071 753.006 118.779 752.169 117.994 751.253L117.772 757.658L115.182 757.568ZM122.237 750.776C124.564 750.857 126.213 749.017 126.294 746.666C126.375 744.315 124.859 742.342 122.532 742.261C120.206 742.181 118.113 743.669 118.019 746.379C117.926 749.066 119.911 750.695 122.237 750.776ZM137.289 753.603C133.524 753.472 130.603 750.441 130.728 746.82C130.854 743.198 133.978 740.352 137.744 740.483C141.51 740.613 144.43 743.668 144.304 747.29C144.179 750.911 141.055 753.733 137.289 753.603ZM137.37 751.276C139.817 751.361 141.729 749.53 141.81 747.203C141.891 744.853 140.11 742.894 137.663 742.809C135.217 742.724 133.304 744.555 133.223 746.906C133.142 749.233 134.924 751.191 137.37 751.276ZM146.98 753.578L147.409 741.177L149.976 741.266L149.802 746.279L156.158 746.499L156.332 741.486L158.898 741.575L158.469 753.976L155.902 753.887L156.085 748.61L149.729 748.39L149.546 753.667L146.98 753.578ZM162.299 754.109L162.728 741.708L165.319 741.798L165.006 750.816L171.507 742.012L174.265 742.108L173.836 754.508L171.245 754.418L171.559 745.376L165.033 754.203L162.299 754.109ZM177.488 759.726L178.094 742.24L180.684 742.33L180.643 743.529C181.536 742.696 183.071 742.052 184.87 742.115C188.66 742.246 191.244 745.289 191.119 748.911C190.993 752.533 188.206 755.366 184.416 755.235C182.377 755.164 181.085 754.327 180.301 753.411L180.079 759.815L177.488 759.726ZM184.544 752.934C186.87 753.014 188.519 751.174 188.6 748.824C188.682 746.473 187.165 744.499 184.839 744.419C182.512 744.338 180.419 745.827 180.325 748.537C180.232 751.224 182.217 752.853 184.544 752.934ZM199.596 755.76C195.83 755.63 192.909 752.599 193.035 748.977C193.16 745.355 196.285 742.51 200.05 742.64C203.816 742.771 206.736 745.826 206.611 749.447C206.485 753.069 203.362 755.891 199.596 755.76ZM199.676 753.434C202.123 753.519 204.036 751.688 204.116 749.361C204.197 747.01 202.416 745.052 199.97 744.967C197.523 744.882 195.611 746.713 195.529 749.064C195.449 751.39 197.23 753.349 199.676 753.434ZM209.286 755.736L209.716 743.335L216.024 743.554C218.878 743.653 219.959 745.035 219.896 746.858C219.842 748.417 218.969 749.347 217.357 749.435C219.512 749.63 220.372 751.149 220.32 752.636C220.254 754.555 218.904 756.069 215.618 755.955L209.286 755.736ZM212.108 748.437C212.108 748.437 214.1 748.482 215.443 748.529C216.595 748.569 217.306 748.137 217.34 747.153C217.374 746.17 216.742 745.692 215.567 745.651L212.209 745.535L212.108 748.437ZM211.926 753.714L215.787 753.848C217.035 753.891 217.727 753.315 217.761 752.331C217.795 751.348 217.12 750.724 215.873 750.681L212.035 750.548L211.926 753.714ZM228.47 756.76C224.68 756.629 222.095 753.61 222.22 749.988C222.346 746.366 225.134 743.509 228.924 743.64C230.723 743.703 232.21 744.451 233.044 745.344L233.085 744.145L235.652 744.233L235.222 756.634L232.608 756.544L232.676 755.273C231.831 756.084 230.484 756.83 228.47 756.76ZM228.741 754.464C231.044 754.544 232.921 753.048 233.015 750.338C233.108 747.651 231.339 746.029 229.036 745.95C226.71 745.869 224.893 747.703 224.812 750.054C224.73 752.404 226.415 754.384 228.741 754.464ZM242.487 756.886L242.843 746.596L237.998 746.428L238.071 744.317L250.304 744.741L250.231 746.852L245.434 746.686L245.077 756.975L242.487 756.886ZM251.788 757.208L252.218 744.807L254.784 744.896L254.611 749.909L258.377 750.04C261.974 750.164 262.857 752.404 262.806 753.891C262.739 755.81 261.383 757.54 258.121 757.427L251.788 757.208ZM254.428 755.186L258.29 755.32C259.537 755.363 260.229 754.786 260.263 753.803C260.297 752.82 259.623 752.196 258.375 752.153L254.538 752.02L254.428 755.186ZM277.836 758.47C273.207 758.31 270.91 755.276 271.036 751.655C271.161 748.033 274.021 745.202 278.05 745.342C279.585 745.395 281.369 745.913 282.436 746.982L282.344 749.645C282.344 749.645 280.946 747.723 277.971 747.62C275.525 747.536 273.636 749.391 273.554 751.742C273.465 754.308 275.156 756.096 277.915 756.191C280.817 756.292 282.397 755.05 282.397 755.05L282.314 757.448C281.156 758.297 279.107 758.514 277.836 758.47ZM288.678 758.485L289.034 748.196L284.189 748.028L284.262 745.917L296.495 746.341L296.422 748.451L291.625 748.285L291.268 758.575L288.678 758.485ZM303.549 759.361C299.783 759.23 296.863 756.199 296.988 752.577C297.113 748.956 300.238 746.11 304.004 746.24C307.769 746.371 310.689 749.426 310.564 753.048C310.438 756.669 307.315 759.491 303.549 759.361ZM303.63 757.034C306.076 757.119 307.989 755.288 308.069 752.961C308.151 750.611 306.37 748.652 303.923 748.567C301.476 748.482 299.564 750.313 299.483 752.664C299.402 754.99 301.183 756.949 303.63 757.034ZM311.332 759.27L317.638 747.073L320.252 747.163L325.699 759.767L323.061 759.676L318.865 749.781L313.97 759.361L311.332 759.27Z" fill="#5886FF"/>
<circle cx="124.466" cy="696.765" r="6" transform="rotate(1.98348 124.466 696.765)" fill="white"/>
<circle cx="6" cy="6" r="6" transform="matrix(-0.999401 -0.0346113 -0.0346113 0.999401 360.827 806.011)" fill="white"/>
<circle cx="154.517" cy="695.805" r="6" transform="rotate(1.98348 154.517 695.805)" fill="white"/>
<circle cx="6" cy="6" r="6" transform="matrix(-0.999401 -0.0346113 -0.0346113 0.999401 331.913 803.009)" fill="white"/>
<circle cx="184.569" cy="694.844" r="6" transform="rotate(1.98348 184.569 694.844)" fill="white"/>
<circle cx="6" cy="6" r="6" transform="matrix(-0.999401 -0.0346113 -0.0346113 0.999401 302.965 801.006)" fill="white"/>
<circle cx="213.586" cy="694.849" r="6" transform="rotate(1.98348 213.586 694.849)" fill="white"/>
<circle cx="6" cy="6" r="6" transform="matrix(-0.999401 -0.0346113 -0.0346113 0.999401 274.052 798.003)" fill="white"/>
<circle cx="242.603" cy="694.853" r="6" transform="rotate(1.98348 242.603 694.853)" fill="white"/>
<circle cx="6" cy="6" r="6" transform="matrix(-0.999401 -0.0346113 -0.0346113 0.999401 245.138 795)" fill="white"/>
<circle cx="271.655" cy="693.857" r="6" transform="rotate(1.98348 271.655 693.857)" fill="white"/>
<circle cx="6" cy="6" r="6" transform="matrix(-0.999401 -0.0346113 -0.0346113 0.999401 216.19 792.997)" fill="white"/>
<circle cx="300.707" cy="692.862" r="6" transform="rotate(1.98348 300.707 692.862)" fill="white"/>
<circle cx="6" cy="6" r="6" transform="matrix(-0.999401 -0.0346113 -0.0346113 0.999401 187.277 789.995)" fill="white"/>
<circle cx="329.758" cy="691.867" r="6" transform="rotate(1.98348 329.758 691.867)" fill="white"/>
<circle cx="6" cy="6" r="6" transform="matrix(-0.999401 -0.0346113 -0.0346113 0.999401 157.364 786.958)" fill="white"/>
<circle cx="358.845" cy="689.873" r="6" transform="rotate(1.98348 358.845 689.873)" fill="white"/>
<circle cx="357.945" cy="715.857" r="6" transform="rotate(1.98348 357.945 715.857)" fill="white"/>
<circle cx="356.942" cy="744.84" r="6" transform="rotate(1.98348 356.942 744.84)" fill="white"/>
<circle cx="355.799" cy="777.82" r="6" transform="rotate(1.98348 355.799 777.82)" fill="white"/>
<circle cx="6" cy="6" r="6" transform="matrix(-0.999401 -0.0346113 -0.0346113 0.999401 127.451 783.921)" fill="white"/>
<circle cx="6" cy="6" r="6" transform="matrix(-0.999401 -0.0346113 -0.0346113 0.999401 125.344 815.867)" fill="white"/>
<circle cx="6" cy="6" r="6" transform="matrix(-0.999401 -0.0346113 -0.0346113 0.999401 130.709 660.96)" fill="white"/>
<circle cx="6" cy="6" r="6" transform="matrix(-0.999401 -0.0346113 -0.0346113 0.999401 107.238 674.155)" fill="white"/>
<circle cx="6" cy="6" r="6" transform="matrix(-0.999401 -0.0346113 -0.0346113 0.999401 86.6963 689.453)" fill="white"/>
<circle cx="6" cy="6" r="6" transform="matrix(-0.999401 -0.0346113 -0.0346113 0.999401 64.1211 705.682)" fill="white"/>
<circle cx="6" cy="6" r="6" transform="matrix(-0.999401 -0.0346113 -0.0346113 0.999401 42.5801 720.945)" fill="white"/>
<circle cx="6" cy="6" r="6" transform="matrix(-0.999401 -0.0346113 -0.0346113 0.999401 21.1079 734.21)" fill="white"/>
<circle cx="6" cy="6" r="6" transform="matrix(-0.999401 -0.0346113 -0.0346113 0.999401 41.5762 749.928)" fill="white"/>
<circle cx="6" cy="6" r="6" transform="matrix(-0.999401 -0.0346113 -0.0346113 0.999401 61.9409 768.644)" fill="white"/>
<circle cx="6" cy="6" r="6" transform="matrix(-0.999401 -0.0346113 -0.0346113 0.999401 83.3389 786.396)" fill="white"/>
<circle cx="6" cy="6" r="6" transform="matrix(-0.999401 -0.0346113 -0.0346113 0.999401 102.739 804.077)" fill="white"/>
</svg>
